# xmcd
#
# Track frame offsets:
#   150
#   15072
#   25936
#   45207
#   56685
#   75192
#   92539
#   107094
#   127688
#   142955
#   164038
#   178409
#   194888
#   207708
#   226732
#   246579
#   265131
#   285815
#   303719
#
# Disc length: 4282 seconds
#
# Revision: 2
# Processed by: cddbd v1.5.1PL2 Copyright (c) Steve Scherf et al.
# Submitted via: Media_Universe 3.0
#
DISCID=fc10b813
DTITLE=Various Artist - Bridget Jones Diary 1
DYEAR=1900
DGENRE=Soundtrack
TTITLE0=Gabrielle - Out Of Reach
TTITLE1=Aretha Franklin - Respect
TTITLE2=Geri Helliwell - It's Raining Men
TTITLE3=Robbie Williams - Have You Met
TTITLE4=Chaka Khan - I'm Every Woman
TTITLE5=Pretenders - Don't Get Me Wrong
TTITLE6=Sheryl Crow - Kiss That Girl
TTITLE7=Shelby Lynne - Killin' Kind
TTITLE8=Dina Caroll - Someone Like You
TTITLE9=Robbie Williams - Not Of This Earth
TTITLE10=Andy Williams - Can't Take My Eyes Off You
TTITLE11=Rosey - Love
TTITLE12=Diana Ross&Marvin Gaye - Stop, Look, Listen
TTITLE13=Shelby Lynne - Dreamsome
TTITLE14=Patrick Doyle - It's Only a Diary
TTITLE15=Alisha's Attic - Pretender Got My Heart
TTITLE16=Jamie O'Neal - All By Myself
TTITLE17=Artful Dodger&Robbie Craig - Woman Trouble
TTITLE18=Aaron Soul - Ring, Ring, Ring
EXTD=
EXTT0=
EXTT1=
EXTT2=
EXTT3=
EXTT4=
EXTT5=
EXTT6=
EXTT7=
EXTT8=
EXTT9=
EXTT10=
EXTT11=
EXTT12=
EXTT13=
EXTT14=
EXTT15=
EXTT16=
EXTT17=
EXTT18=
PLAYORDER=
